# xmcd
#
# Track frame offsets:
#	150
#	7250
#	22621
#	40881
#	58174
#	77714
#	98249
#	116397
#	127698
#	145095
#	167554
#	189237
#	207323
#
# Disc length: 3016 seconds
#
# Revision: 0
# Processed by: cddbd v1.5.2PL0 Copyright (c) Steve Scherf et al.
# Submitted via: EasyCDDAExtractor 10.2.0.1
#
DISCID=9e0bc60d
DTITLE=Rene Jones - Chill Factor
DYEAR=2006
DGENRE=Soul
TTITLE0=Chill Collection One (Intro)
TTITLE1=I I Let You In
TTITLE2=Totally
TTITLE3=You Know
TTITLE4=Hungry For Love
TTITLE5=Everything I Need 
TTITLE6=Summer Day
TTITLE7=Chill Collection Two (Interlude)
TTITLE8=Stay
TTITLE9=Show Me
TTITLE10=Sensuality
TTITLE11=Soul To Keep
TTITLE12=Chill Factor
EXTD=
EXTT0=
EXTT1=
EXTT2=
EXTT3=
EXTT4=
EXTT5=
EXTT6=
EXTT7=
EXTT8=
EXTT9=
EXTT10=
EXTT11=
EXTT12=
PLAYORDER=
